<svg width="149" height="40" viewBox="0 0 149 40" fill="none" xmlns="http://www.w3.org/2000/svg">
<path d="M1.38727 20.8384C1.76781 21.2021 2.40205 22.9526 2.62192 23.5192C3.86502 26.8257 5.05739 30.5043 6.02989 33.9039C6.34278 35.0117 6.74023 35.6713 5.95378 36.6861C5.16732 37.7009 2.89252 39.1977 1.77627 39.722C0.803767 40.1786 0.0680511 40.1786 0.0173121 38.9102C-0.033427 37.6417 0.0426817 35.2907 0.0511382 33.5318C0.0680512 29.8193 0.00885556 25.9547 0.271007 22.2592C0.296377 21.8617 0.31329 21.3205 0.541616 20.9907C0.753028 20.6862 1.09129 20.5594 1.38727 20.8384Z" fill="#FF5703"/>
<path d="M3.2973 19.9552C3.89771 19.7945 5.62284 20.4377 6.26554 20.6576C8.30355 21.3595 10.3585 22.1713 12.3796 22.9409C14.1893 23.6258 16.1005 24.3024 17.8848 25.0635C18.5444 25.3425 19.2378 25.5624 19.297 26.4081C19.3393 27.1184 18.6374 29.7907 18.2399 30.3911C17.8679 30.9492 17.5296 31.0084 16.9207 30.7547C16.1596 30.4249 15.1364 29.7061 14.4261 29.2326C11.1957 27.0846 7.69469 24.6914 4.64189 22.2982C3.30576 21.2495 3.162 21.165 2.95904 20.8183C2.74763 20.4546 2.88293 20.0656 3.2973 19.9557V19.9552Z" fill="#FF5703"/>
<path d="M0.515637 0.0612891C0.634028 0.0190062 0.828528 -0.00685864 0.946919 0.00159794C1.708 0.0354243 3.99972 1.50687 4.54093 2.08191C5.07369 2.64851 5.02295 2.98677 4.89611 3.70558C4.24496 7.39265 3.30628 11.2996 2.26613 14.8936C2.02935 15.7224 1.7672 16.7879 1.38666 17.549C1.00611 18.327 0.184883 18.3578 0.16892 17.4898C0.0928119 13.3207 0.0167031 9.15162 0.0589856 4.98253C0.101268 0.813432 0.0251597 2.07346 0.177377 0.796519C0.202746 0.568191 0.278855 0.153817 0.515637 0.060795V0.0612891Z" fill="#FF5703"/>
<path d="M15.4928 6.96837C15.8734 7.28126 17.1165 9.38694 17.2518 9.87743C17.497 10.7738 16.9896 11.1121 16.3131 11.5265C13.8354 13.0317 10.994 14.4524 8.41474 15.8055C7.05325 16.5243 5.63255 17.3277 4.22877 17.9535C3.82286 18.131 3.0956 18.4947 2.72352 18.0888C2.29223 17.6152 2.97721 17.074 3.2901 16.7526C4.73616 15.2727 6.36827 13.8182 7.89044 12.4059C9.36187 11.0444 10.8756 9.64064 12.4062 8.33833C12.9221 7.89859 14.1483 6.78232 14.7656 6.70621C14.9939 6.68084 15.3068 6.81614 15.4844 6.95991L15.4928 6.96837Z" fill="#FF5703"/>
<path d="M29.2988 33.7887V6.42406C29.2988 5.98605 29.6562 5.62872 30.0942 5.62872H34.1285C34.5665 5.62872 34.9238 5.98605 34.9238 6.42406V18.6425H35.0506C35.5232 17.4437 35.9497 16.1527 36.4222 14.9078L40.0877 6.11284C40.2145 5.81314 40.5027 5.61719 40.8254 5.61719H45.2055C45.8049 5.61719 46.1968 6.25117 45.9201 6.7814L39.9955 18.2045L46.1737 33.4775C46.3812 34.0077 46.0008 34.5726 45.436 34.5726H40.9983C40.664 34.5726 40.3528 34.3535 40.2491 34.0423L36.2263 22.5847L34.9353 24.9477V33.7772C34.9353 34.2152 34.578 34.5726 34.14 34.5726H30.1057C29.6677 34.5726 29.3104 34.2152 29.3104 33.7772L29.2988 33.7887Z" fill="white"/>
<path d="M62.8868 22.0573V29.8379C62.8868 31.175 62.9444 32.5467 63.0712 33.7685C63.1173 34.2411 62.7485 34.6561 62.2759 34.6561H58.8525C58.4606 34.6561 58.1148 34.3679 58.0571 33.976L57.8612 32.5928H57.7344C56.6163 34.1835 54.945 35.0019 53.0892 35.0019C49.9079 35.0019 47.5449 32.3392 47.5449 28.6391C47.5449 23.0947 52.3976 20.8585 57.1696 20.8239V20.3513C57.1696 18.6799 56.2244 17.4696 54.2073 17.4696C52.1901 17.4696 51.7867 17.7578 50.7493 18.2534C50.2998 18.4724 49.7695 18.2188 49.6428 17.7347L49.0434 15.5215C48.9396 15.1412 49.1241 14.7492 49.4814 14.5879C50.7954 13.9885 52.9163 13.2969 55.4406 13.2969C61.8494 13.2969 62.8752 17.7693 62.8752 22.0688L62.8868 22.0573ZM57.3425 28.0742V24.4203C55.4982 24.4664 52.8702 25.1119 52.8702 28.0281C52.8702 30.9444 54.0344 30.8637 54.8873 30.8637C55.7403 30.8637 56.8238 30.3104 57.2042 29.054C57.2849 28.7543 57.331 28.4546 57.331 28.0627L57.3425 28.0742Z" fill="white"/>
<path d="M130.709 22.0573V29.8379C130.709 31.175 130.767 32.5467 130.893 33.7685C130.94 34.2411 130.571 34.6561 130.098 34.6561H126.675C126.283 34.6561 125.937 34.3679 125.879 33.976L125.683 32.5928H125.557C124.439 34.1835 122.767 35.0019 120.911 35.0019C117.73 35.0019 115.367 32.3392 115.367 28.6391C115.367 23.0947 120.22 20.8585 124.992 20.8239V20.3513C124.992 18.6799 124.047 17.4696 122.03 17.4696C120.012 17.4696 119.609 17.7578 118.572 18.2534C118.122 18.4724 117.592 18.2188 117.465 17.7347L116.866 15.5215C116.762 15.1412 116.946 14.7492 117.304 14.5879C118.618 13.9885 120.739 13.2969 123.263 13.2969C129.672 13.2969 130.698 17.7693 130.698 22.0688L130.709 22.0573ZM125.165 28.0742V24.4203C123.321 24.4664 120.692 25.1119 120.692 28.0281C120.692 30.9444 121.857 30.8637 122.71 30.8637C123.563 30.8637 124.646 30.3104 125.026 29.054C125.107 28.7543 125.153 28.4546 125.153 28.0627L125.165 28.0742Z" fill="white"/>
<path d="M67.2091 34.6399C66.7711 34.6399 66.4138 34.2825 66.4138 33.8445V19.9432C66.4138 18.168 66.3446 16.22 66.2754 14.4564C66.2524 14.0069 66.6212 13.6265 67.0708 13.6265H70.3674C70.7823 13.6265 71.1281 13.9377 71.1627 14.3527L71.3932 16.6811H71.5661C72.4652 14.4449 74.1827 13.2461 75.6926 13.2461C77.2026 13.2461 76.0154 13.2461 76.1422 13.2461C76.5687 13.2691 76.8914 13.6265 76.8914 14.0414V18.0643C76.8914 18.5138 76.5341 18.8712 76.0845 18.8597C75.9578 18.8597 75.831 18.8597 75.6811 18.8597C74.4824 18.8597 72.8917 19.6781 72.2808 21.822C72.1079 22.2946 72.0272 23.0669 72.0272 23.9315V33.833C72.0272 34.271 71.6699 34.6283 71.2319 34.6283H67.1976L67.2091 34.6399Z" fill="white"/>
<path d="M83.4375 34.647H79.4032C78.9652 34.647 78.6079 34.2896 78.6079 33.8516V14.4405C78.6079 14.0024 78.9652 13.6451 79.4032 13.6451H83.4375C83.8755 13.6451 84.2328 14.0024 84.2328 14.4405V33.8516C84.2328 34.2896 83.8755 34.647 83.4375 34.647ZM81.3627 5C82.9995 5 84.2443 6.19879 84.2443 8.08919C84.2905 9.8989 82.9995 11.1438 81.282 11.1438C79.5646 11.1438 78.4465 9.8989 78.4926 8.08919C78.4465 6.19879 79.8297 5 81.3742 5H81.3627Z" fill="white"/>
<path d="M88.5109 34.6399C88.0728 34.6399 87.7155 34.2825 87.7155 33.8445V19.9432C87.7155 17.9836 87.6464 16.2085 87.5772 14.4564C87.5541 14.0069 87.923 13.6265 88.3725 13.6265H91.7268C92.1302 13.6265 92.476 13.9262 92.5221 14.3296L92.7296 16.0356H92.8103C93.8822 14.491 95.6458 13.2461 97.7897 13.2461C99.9337 13.2461 101.663 14.3181 102.389 16.1278H102.47C102.988 15.3094 103.807 14.5371 104.613 14.0184C105.478 13.4997 106.458 13.2461 107.53 13.2461C111.31 13.2461 112.982 16.2546 112.982 21.2803V33.8445C112.982 34.2825 112.624 34.6399 112.186 34.6399H108.152C107.714 34.6399 107.357 34.2825 107.357 33.8445V22.2255C107.357 19.8625 107.103 17.926 105.42 17.926C103.737 17.926 103.657 18.6176 103.311 19.8164C103.184 20.1622 103.138 20.7155 103.138 21.3264V33.8445C103.138 34.2825 102.781 34.6399 102.343 34.6399H98.3084C97.8704 34.6399 97.5131 34.2825 97.5131 33.8445V21.4532C97.5131 19.9086 97.3863 17.926 95.6227 17.926C93.8592 17.926 93.9053 18.5254 93.5134 19.8164C93.3866 20.2083 93.2944 20.8077 93.2944 21.4071V33.8445C93.2944 34.2825 92.9371 34.6399 92.499 34.6399H88.4647H88.5109Z" fill="white"/>
<path d="M133.775 13.707H138.086C138.432 13.707 138.732 13.926 138.847 14.2488L139.953 17.4532C140.345 18.6981 140.68 19.9892 140.979 20.9805H141.06C141.36 19.9546 141.659 18.6175 142.051 17.4532L143.112 14.2603C143.215 13.9376 143.527 13.7186 143.872 13.7186H147.676C148.264 13.7186 148.644 14.318 148.402 14.8482L144.195 24.0696L148.495 33.6023C148.737 34.1326 148.345 34.7319 147.768 34.7319H143.469C143.135 34.7319 142.835 34.5245 142.72 34.2132L141.452 30.7783C141.06 29.7063 140.76 28.6343 140.461 27.5507H140.38C140.08 28.6227 139.734 29.6947 139.435 30.7783L138.328 34.1787C138.224 34.5129 137.913 34.7319 137.567 34.7319H133.752C133.176 34.7319 132.784 34.1326 133.026 33.6023L137.199 24.2886L133.049 14.8367C132.818 14.3064 133.199 13.7186 133.787 13.7186L133.775 13.707Z" fill="white"/>
</svg>
